<?xml version="1.0" standalone="no"?><!DOCTYPE svg PUBLIC "-//W3C//DTD SVG 1.1//EN" "http://www.w3.org/Graphics/SVG/1.1/DTD/svg11.dtd"><svg t="1582812799536" class="icon" viewBox="0 0 1024 1024" version="1.1" xmlns="http://www.w3.org/2000/svg" p-id="3100" width="128" height="128" xmlns:xlink="http://www.w3.org/1999/xlink"><defs><style type="text/css"></style></defs><path d="M736 32h-448c-54.4 0-96 41.6-96 96v768c0 54.4 41.6 96 96 96h448c54.4 0 96-41.6 96-96v-768c0-54.4-41.6-96-96-96z m-480 96c0-19.2 12.8-32 32-32h448c19.2 0 32 12.8 32 32v64h-512v-64z m512 768c0 19.2-12.8 32-32 32h-448c-19.2 0-32-12.8-32-32v-640h512v640z" p-id="3101"></path><path d="M512 832m-32 0a32 32 0 1 0 64 0 32 32 0 1 0-64 0Z" p-id="3102"></path></svg>